<svg version="1.2" xmlns="http://www.w3.org/2000/svg" viewBox="0 0 327 142" width="327" height="142">
	<defs>
		<clipPath clipPathUnits="userSpaceOnUse" id="cp1">
			<path d="m-1 20h328v122h-328z"/>
		</clipPath>
		<clipPath clipPathUnits="userSpaceOnUse" id="cp2">
			<path d="m-2 0h329v131h-329z"/>
		</clipPath>
	</defs>
	<style>
		.s0 { fill: #ffc000 } 
		.s1 { fill: #007d78 } 
	</style>
	<g id="Clip-Path" clip-path="url(#cp1)">
		<g>
			<path class="s0" d="m-10 77.48l33.56-0.39c33.55-0.39 100.66-1.17 167.77 3.5 67.11 4.67 134.23 14.79 201.34 20.43 67.11 5.65 134.22 6.81 167.77 7.4l33.56 0.58v-72h-33.56c-33.55 0-100.66 0-167.77 0q-100.67 0-201.34 0c-67.11 0-134.22 0-167.77 0h-33.56z"/>
		</g>
	</g>
	<g id="Clip-Path" clip-path="url(#cp2)">
		<g>
			<path class="s1" d="m-1 58.81l32.47-0.56c32.47-0.57 97.41-1.7 162.35 5.08 64.94 6.79 135.18 21.67 135.18 21.67v-9.05-12.58-15.09-9.55-8.55c0 0 0-21.13 0-30.18 0 0-70.24 0-135.18 0-64.94 0-129.88 0-162.35 0h-32.47v29.41z"/>
		</g>
	</g>
</svg>